<svg width="205" height="56" viewBox="0 0 205 56" fill="none" xmlns="http://www.w3.org/2000/svg"><path d="M50.7907 50.3777C53.0624 45.5054 50.9552 39.7171 46.083 37.4455L28.443 29.2183C23.8998 38.9599 28.1141 50.5422 37.8586 55.0854C42.7308 57.3571 48.5191 55.2499 50.7907 50.3777Z" fill="#80C1F4"></path><path d="M5.62203 50.79C10.4943 53.0616 16.2826 50.9545 18.5542 46.0822L26.7814 28.4423C17.0398 23.899 5.45754 28.1133 0.914264 37.8578C-1.35737 42.7301 0.749776 48.5184 5.62203 50.79Z" fill="#AA89F6"></path><path d="M5.21175 5.62203C2.94011 10.4943 5.04726 16.2826 9.91951 18.5542L27.5595 26.7814C32.1027 17.0398 27.8884 5.45754 18.1439 0.914264C13.2745 -1.35737 7.48339 0.749776 5.21175 5.62203Z" fill="#F2CE71"></path><path d="M50.3806 5.21065C45.5084 2.93901 39.7201 5.04616 37.4484 9.91842L29.2212 27.5584C38.9629 32.1016 50.5451 27.8873 55.0884 18.1428C57.36 13.2706 55.2529 7.48229 50.3806 5.21065Z" fill="#EC7974"></path><path fill-rule="evenodd" clip-rule="evenodd" d="M149.928 37.3071V12.4976H155.406V37.3071H149.928ZM90.1473 28.0071C90.1473 22.5093 94.0919 18.5304 99.3201 18.0814H99.3248C104.572 17.6276 110.247 21.5396 110.247 28.0215V37.3262H104.769V28.0071C104.769 25.3896 102.625 23.2783 100.115 23.2783C97.604 23.2783 95.6247 25.4899 95.6247 28.074C95.6247 30.6581 97.6416 32.7694 100.181 32.7694C102.917 32.7694 104.539 31.0833 104.689 30.5817C104.689 32.6404 102.418 35.7643 100.721 37.1973C100.157 37.6749 99.6539 37.9663 99.3201 37.9663C93.9086 37.9663 90.1473 33.505 90.1473 28.0071ZM68.0027 28.0597C68.0027 21.5778 73.6775 17.661 78.9245 18.1148C84.1527 18.5686 88.0974 22.409 88.0974 28.0405C88.0974 33.6721 84.3361 37.9997 78.9245 37.9997C76.2869 37.9997 74.0819 36.2993 73.4801 34.8806V43.5023H68.0027V28.0597ZM73.4801 28.0358C73.4801 30.362 75.3278 32.798 78.0688 32.798C80.6124 32.798 82.6247 30.7871 82.6247 28.1026C82.6247 25.4182 80.7111 23.307 78.1347 23.307C75.5582 23.307 73.4801 25.423 73.4801 28.0358ZM121.451 23.9471C121.418 22.8723 120.661 22.538 119.767 22.538C118.874 22.538 118.183 23.073 118.183 23.7799C118.183 24.7878 119.072 25.2893 121.615 25.958C125.969 27.1331 127.389 28.9099 127.389 31.623C127.389 35.5112 124.088 37.9616 119.932 37.9616C115.776 37.9616 112.87 35.5828 112.475 31.7902H117.92C118.084 32.9653 118.912 33.5002 119.998 33.5002C120.952 33.5002 121.911 32.9318 121.911 32.0577C121.911 31.0164 121.286 30.4814 118.545 29.6121C113.923 28.1696 112.706 26.3258 112.706 24.1477C112.706 20.4602 116.105 18.0767 119.8 18.0767C123.759 18.0767 126.566 20.2882 126.829 23.9423H121.451V23.9471ZM138.753 33.2183C136.51 33.2183 134.761 31.8092 134.465 29.698H148.193C148.292 29.1965 148.325 28.757 148.325 28.222C148.325 22.4567 144.037 18.0623 138.654 18.0623C133.27 18.0623 129.048 22.5236 129.048 28.0549C129.048 33.5861 133.473 37.9137 138.753 37.9137C142.613 37.9137 145.946 35.5302 147.695 31.4749H142.086C141.193 32.6499 140.238 33.2183 138.753 33.2183ZM138.659 22.7576C140.77 22.7576 142.42 24.033 142.848 25.9436H134.535C134.963 23.9661 136.679 22.7576 138.659 22.7576ZM157.634 27.988C157.634 22.4901 161.579 18.5112 166.807 18.0622H166.812C172.059 17.6085 177.734 21.5205 177.734 28.0023V37.3071H172.256V27.988C172.256 25.3704 170.112 23.2592 167.602 23.2592C165.091 23.2592 163.112 25.4707 163.112 28.0548C163.112 30.639 165.129 32.7502 167.667 32.7502C170.404 32.7502 172.026 31.0641 172.176 30.5625C172.176 33.3091 168.138 37.9471 166.807 37.9471C161.396 37.9471 157.634 33.4858 157.634 27.988Z" fill="#3D3D3D"></path><path d="M176.431 15.9976V13.575H175.501V12.9976H178.122V13.575H177.193V15.9976H176.431ZM181.739 15.9976V13.8762H181.726L180.917 15.9976H180.335L179.526 13.8762H179.513V15.9976H178.751V13.0038H179.86L180.629 14.893L181.392 13.0038H182.501V15.9976H181.739Z" fill="#3D3D3D"></path><path d="M133.511 45.62C134.111 45.62 134.574 45.8333 134.901 46.26C135.227 46.68 135.391 47.38 135.391 48.36C135.391 49.34 135.227 50.0433 134.901 50.47C134.574 50.89 134.111 51.1 133.511 51.1C132.891 51.1 132.434 50.9067 132.141 50.52V50.93C131.974 50.9767 131.761 51 131.501 51C131.241 51 131.034 50.9767 130.881 50.93V43.57C131.034 43.5233 131.241 43.5 131.501 43.5C131.761 43.5 131.974 43.5233 132.141 43.57V46.2C132.434 45.8133 132.891 45.62 133.511 45.62ZM133.061 50.1C133.301 50.1 133.494 50.05 133.641 49.95C133.787 49.8433 133.894 49.6667 133.961 49.42C134.034 49.1667 134.071 48.8133 134.071 48.36C134.071 47.9067 134.034 47.5567 133.961 47.31C133.894 47.0567 133.787 46.88 133.641 46.78C133.494 46.6733 133.301 46.62 133.061 46.62C132.781 46.62 132.557 46.7233 132.391 46.93C132.231 47.1367 132.147 47.4 132.141 47.72V49C132.141 49.3133 132.224 49.5767 132.391 49.79C132.557 49.9967 132.781 50.1 133.061 50.1ZM140.1 45.71C140.34 45.71 140.546 45.7333 140.72 45.78L138.86 51.71C138.726 52.1233 138.583 52.4567 138.43 52.71C138.283 52.97 138.086 53.1667 137.84 53.3C137.6 53.4333 137.29 53.5 136.91 53.5C136.65 53.5 136.41 53.4633 136.19 53.39C136.136 53.2633 136.11 53.1133 136.11 52.94C136.11 52.76 136.14 52.5967 136.2 52.45C136.326 52.4767 136.48 52.49 136.66 52.49C136.846 52.49 136.996 52.4667 137.11 52.42C137.223 52.3733 137.326 52.2767 137.42 52.13C137.513 51.99 137.606 51.7767 137.7 51.49L137.87 50.99C137.73 50.99 137.6 50.97 137.48 50.93L135.64 45.78C135.82 45.7333 136.043 45.71 136.31 45.71C136.583 45.71 136.796 45.7333 136.95 45.78L137.95 48.52C138.11 48.9667 138.22 49.39 138.28 49.79H138.32C138.38 49.3967 138.48 48.9733 138.62 48.52L139.49 45.78C139.643 45.7333 139.846 45.71 140.1 45.71ZM145.855 43.8C146.555 43.8 147.105 44.0033 147.505 44.41C147.911 44.81 148.115 45.3567 148.115 46.05C148.115 46.73 147.911 47.2733 147.505 47.68C147.105 48.08 146.555 48.28 145.855 48.28H144.475V50.92C144.308 50.9733 144.091 51 143.825 51C143.538 51 143.321 50.9733 143.175 50.92V43.8H145.855ZM145.685 47.25C146.025 47.25 146.288 47.1467 146.475 46.94C146.668 46.7267 146.765 46.43 146.765 46.05C146.765 45.6633 146.668 45.3667 146.475 45.16C146.288 44.9467 146.025 44.84 145.685 44.84H144.475V47.25H145.685ZM150.882 51.1C150.136 51.1 149.562 50.8833 149.162 50.45C148.762 50.01 148.562 49.3133 148.562 48.36C148.562 47.4 148.762 46.7033 149.162 46.27C149.562 45.8367 150.136 45.62 150.882 45.62C151.629 45.62 152.202 45.8367 152.602 46.27C153.002 46.7033 153.202 47.4 153.202 48.36C153.202 49.3133 153.002 50.01 152.602 50.45C152.202 50.8833 151.629 51.1 150.882 51.1ZM150.882 50.14C151.222 50.14 151.476 50.01 151.642 49.75C151.809 49.49 151.892 49.0267 151.892 48.36C151.892 47.6933 151.809 47.2333 151.642 46.98C151.476 46.72 151.222 46.59 150.882 46.59C150.542 46.59 150.286 46.72 150.112 46.98C149.946 47.2333 149.862 47.6933 149.862 48.36C149.862 49.0267 149.946 49.49 150.112 49.75C150.286 50.01 150.542 50.14 150.882 50.14ZM155.541 51.1C155.214 51.1 154.884 51.0667 154.551 51C154.224 50.9267 153.964 50.8333 153.771 50.72C153.771 50.3467 153.874 50.0533 154.081 49.84C154.541 50 154.994 50.08 155.441 50.08C156.047 50.08 156.351 49.8833 156.351 49.49C156.351 49.3033 156.274 49.1667 156.121 49.08C155.967 48.9867 155.794 48.9133 155.601 48.86C155.407 48.8 155.281 48.76 155.221 48.74C154.801 48.6133 154.467 48.4433 154.221 48.23C153.974 48.0167 153.851 47.69 153.851 47.25C153.851 46.7367 154.014 46.3367 154.341 46.05C154.667 45.7633 155.154 45.62 155.801 45.62C156.154 45.62 156.447 45.6467 156.681 45.7C156.921 45.7533 157.137 45.8233 157.331 45.91C157.337 46.0767 157.314 46.2367 157.261 46.39C157.214 46.5433 157.137 46.67 157.031 46.77C156.711 46.6633 156.344 46.61 155.931 46.61C155.331 46.61 155.031 46.8067 155.031 47.2C155.031 47.3533 155.101 47.47 155.241 47.55C155.381 47.6233 155.607 47.71 155.921 47.81L156.271 47.92C156.671 48.0533 156.987 48.23 157.221 48.45C157.454 48.67 157.571 49.0033 157.571 49.45C157.571 49.9767 157.401 50.3833 157.061 50.67C156.727 50.9567 156.221 51.1 155.541 51.1ZM158.993 44.76C158.713 44.76 158.496 44.7367 158.343 44.69V43.61C158.489 43.5633 158.706 43.54 158.993 43.54C159.253 43.54 159.466 43.5633 159.633 43.61V44.69C159.466 44.7367 159.253 44.76 158.993 44.76ZM158.993 51C158.713 51 158.503 50.9767 158.363 50.93V45.78C158.503 45.7333 158.713 45.71 158.993 45.71C159.246 45.71 159.456 45.7333 159.623 45.78V50.93C159.456 50.9767 159.246 51 158.993 51ZM163.632 50.07C163.698 50.2167 163.732 50.3867 163.732 50.58C163.732 50.7467 163.712 50.8867 163.672 51C163.425 51.0667 163.148 51.1 162.842 51.1C162.202 51.1 161.742 50.9433 161.462 50.63C161.182 50.3167 161.042 49.82 161.042 49.14V46.63H160.302C160.262 46.51 160.242 46.36 160.242 46.18C160.242 45.9867 160.262 45.83 160.302 45.71H161.042V44.78C161.175 44.7067 161.332 44.65 161.512 44.61C161.698 44.57 161.885 44.55 162.072 44.55C162.178 44.55 162.255 44.5533 162.302 44.56V45.71H163.502C163.548 45.83 163.572 45.9833 163.572 46.17C163.572 46.3433 163.548 46.4967 163.502 46.63H162.302V49.11C162.302 49.49 162.372 49.7533 162.512 49.9C162.652 50.0467 162.882 50.12 163.202 50.12C163.342 50.12 163.485 50.1033 163.632 50.07ZM164.979 44.76C164.699 44.76 164.483 44.7367 164.329 44.69V43.61C164.476 43.5633 164.693 43.54 164.979 43.54C165.239 43.54 165.453 43.5633 165.619 43.61V44.69C165.453 44.7367 165.239 44.76 164.979 44.76ZM164.979 51C164.699 51 164.489 50.9767 164.349 50.93V45.78C164.489 45.7333 164.699 45.71 164.979 45.71C165.233 45.71 165.443 45.7333 165.609 45.78V50.93C165.443 50.9767 165.233 51 164.979 51ZM168.678 51C168.365 51 168.108 50.9767 167.908 50.93L166.188 45.78C166.368 45.7333 166.585 45.71 166.838 45.71C167.112 45.71 167.328 45.7333 167.488 45.78L168.388 48.49C168.528 48.9367 168.628 49.3833 168.688 49.83H168.728C168.795 49.39 168.902 48.9433 169.048 48.49L169.958 45.78C170.118 45.7333 170.312 45.71 170.538 45.71C170.778 45.71 170.975 45.7333 171.128 45.78L169.448 50.93C169.235 50.9767 168.978 51 168.678 51ZM175.675 47.66C175.675 48.0733 175.639 48.4333 175.565 48.74H172.685C172.725 49.2267 172.845 49.5667 173.045 49.76C173.252 49.9533 173.549 50.05 173.935 50.05C174.155 50.05 174.362 50.0233 174.555 49.97C174.749 49.9167 174.912 49.8533 175.045 49.78C175.152 49.8733 175.242 50.0033 175.315 50.17C175.395 50.33 175.439 50.49 175.445 50.65C175.265 50.7767 175.025 50.8833 174.725 50.97C174.432 51.0567 174.099 51.1 173.725 51.1C172.939 51.1 172.352 50.8767 171.965 50.43C171.585 49.9767 171.395 49.29 171.395 48.37C171.395 47.4433 171.595 46.7533 171.995 46.3C172.395 45.8467 172.955 45.62 173.675 45.62C174.315 45.62 174.809 45.7933 175.155 46.14C175.502 46.4867 175.675 46.9933 175.675 47.66ZM173.695 46.56C173.089 46.56 172.752 47.0133 172.685 47.92H174.495C174.509 47.76 174.515 47.6267 174.515 47.52C174.515 47.2333 174.449 47.0033 174.315 46.83C174.189 46.65 173.982 46.56 173.695 46.56ZM184.059 50.92C183.925 50.9733 183.692 51 183.359 51C183.059 51 182.849 50.9733 182.729 50.92L182.179 49.31H179.439L178.879 50.92C178.745 50.9733 178.532 51 178.239 51C177.965 51 177.762 50.9733 177.629 50.92L180.039 43.88C180.212 43.8267 180.482 43.8 180.849 43.8C181.222 43.8 181.489 43.8267 181.649 43.88L184.059 50.92ZM179.749 48.32H181.849L181.079 46.09C180.945 45.67 180.859 45.3333 180.819 45.08H180.789C180.742 45.38 180.659 45.7167 180.539 46.09L179.749 48.32ZM186.571 51.1C185.064 51.1 184.311 50.19 184.311 48.37C184.311 47.4633 184.498 46.78 184.871 46.32C185.251 45.8533 185.818 45.62 186.571 45.62C186.898 45.62 187.181 45.65 187.421 45.71C187.668 45.7633 187.858 45.83 187.991 45.91C187.991 46.07 187.958 46.23 187.891 46.39C187.824 46.5433 187.738 46.6733 187.631 46.78C187.398 46.68 187.128 46.63 186.821 46.63C186.388 46.63 186.078 46.77 185.891 47.05C185.704 47.3233 185.611 47.76 185.611 48.36C185.611 48.96 185.708 49.3933 185.901 49.66C186.101 49.92 186.421 50.05 186.861 50.05C187.181 50.05 187.471 49.9967 187.731 49.89C187.831 49.9833 187.914 50.11 187.981 50.27C188.048 50.43 188.088 50.5967 188.101 50.77C187.948 50.8633 187.738 50.94 187.471 51C187.211 51.0667 186.911 51.1 186.571 51.1ZM191.734 50.07C191.8 50.2167 191.834 50.3867 191.834 50.58C191.834 50.7467 191.814 50.8867 191.774 51C191.527 51.0667 191.25 51.1 190.944 51.1C190.304 51.1 189.844 50.9433 189.564 50.63C189.284 50.3167 189.144 49.82 189.144 49.14V46.63H188.404C188.364 46.51 188.344 46.36 188.344 46.18C188.344 45.9867 188.364 45.83 188.404 45.71H189.144V44.78C189.277 44.7067 189.434 44.65 189.614 44.61C189.8 44.57 189.987 44.55 190.174 44.55C190.28 44.55 190.357 44.5533 190.404 44.56V45.71H191.604C191.65 45.83 191.674 45.9833 191.674 46.17C191.674 46.3433 191.65 46.4967 191.604 46.63H190.404V49.11C190.404 49.49 190.474 49.7533 190.614 49.9C190.754 50.0467 190.984 50.12 191.304 50.12C191.444 50.12 191.587 50.1033 191.734 50.07ZM193.081 44.76C192.801 44.76 192.585 44.7367 192.431 44.69V43.61C192.578 43.5633 192.795 43.54 193.081 43.54C193.341 43.54 193.555 43.5633 193.721 43.61V44.69C193.555 44.7367 193.341 44.76 193.081 44.76ZM193.081 51C192.801 51 192.591 50.9767 192.451 50.93V45.78C192.591 45.7333 192.801 45.71 193.081 45.71C193.335 45.71 193.545 45.7333 193.711 45.78V50.93C193.545 50.9767 193.335 51 193.081 51ZM196.9 51.1C196.154 51.1 195.58 50.8833 195.18 50.45C194.78 50.01 194.58 49.3133 194.58 48.36C194.58 47.4 194.78 46.7033 195.18 46.27C195.58 45.8367 196.154 45.62 196.9 45.62C197.647 45.62 198.22 45.8367 198.62 46.27C199.02 46.7033 199.22 47.4 199.22 48.36C199.22 49.3133 199.02 50.01 198.62 50.45C198.22 50.8833 197.647 51.1 196.9 51.1ZM196.9 50.14C197.24 50.14 197.494 50.01 197.66 49.75C197.827 49.49 197.91 49.0267 197.91 48.36C197.91 47.6933 197.827 47.2333 197.66 46.98C197.494 46.72 197.24 46.59 196.9 46.59C196.56 46.59 196.304 46.72 196.13 46.98C195.964 47.2333 195.88 47.6933 195.88 48.36C195.88 49.0267 195.964 49.49 196.13 49.75C196.304 50.01 196.56 50.14 196.9 50.14ZM200.698 51C200.425 51 200.215 50.9767 200.068 50.93V45.79C200.215 45.7367 200.425 45.71 200.698 45.71C200.958 45.71 201.168 45.7367 201.328 45.79V46.2C201.695 45.8133 202.178 45.62 202.778 45.62C203.265 45.62 203.642 45.7567 203.908 46.03C204.175 46.3033 204.308 46.6667 204.308 47.12V50.93C204.155 50.9767 203.945 51 203.678 51C203.405 51 203.195 50.9767 203.048 50.93V47.37C203.048 46.87 202.785 46.62 202.258 46.62C202.078 46.62 201.905 46.6633 201.738 46.75C201.578 46.8367 201.442 46.96 201.328 47.12V50.93C201.168 50.9767 200.958 51 200.698 51Z" fill="#3D3D3D"></path></svg>