<svg width="280" height="97" viewBox="0 0 280 97" fill="none" xmlns="http://www.w3.org/2000/svg">
<path d="M71.6504 38.7343L51.7847 18.8483C50.1634 17.227 47.9696 16.3201 45.6796 16.3201L26.4674 16.3353C25.2768 16.3353 24.3141 17.2979 24.3141 18.4885V22.4759C24.3141 23.6665 23.3515 24.6291 22.1609 24.6291H18.1533C16.9626 24.6291 16 25.5968 16 26.7875V64.0465C16 65.2371 16.9626 66.1997 18.1533 66.1997H22.1609C23.3515 66.1997 24.3141 67.1624 24.3141 68.353V72.3606C24.3141 73.5512 25.2768 74.5139 26.4674 74.5139H63.7163C64.9069 74.5139 65.8695 73.5512 65.8695 72.3606V68.353C65.8695 67.1624 66.8322 66.1997 68.0228 66.1997H72.0152C73.2058 66.1997 74.1685 65.2371 74.1685 64.0465V44.8242C74.1685 42.5392 73.2616 40.3505 71.6454 38.7343H71.6504ZM65.3477 43.9375V63.5196C65.3477 64.7102 64.3851 65.6728 63.1944 65.6728H26.9943C25.8037 65.6728 24.841 64.7102 24.841 63.5196V27.3093C24.841 26.1187 25.8037 25.156 26.9943 25.156H46.5763C47.7669 25.156 48.7296 26.1187 48.7296 27.3093V39.626C48.7296 40.8166 49.6922 41.7792 50.8828 41.7792H63.1894C64.38 41.7792 65.3426 42.7418 65.3426 43.9325L65.3477 43.9375Z" fill="#FF2C63"/>
<path d="M189.087 30.5366V72.396C189.087 72.9939 188.6 73.4752 188.008 73.4752H174.48V80.32H188.458C193.165 80.32 196.985 76.5049 196.985 71.7931V30.5366H189.092H189.087Z" fill="#0B3551"/>
<path d="M263.747 38.324H255.519C252.768 38.324 250.538 40.5532 250.538 43.3043V66.8027H242.625V41.9313C242.625 35.5779 247.777 30.4253 254.131 30.4253H263.747V38.3189V38.324Z" fill="#0B3551"/>
<path d="M148.2 45.8121V51.4309C148.2 59.9223 155.085 66.8077 163.577 66.8077H167.863C176.355 66.8077 183.24 59.9223 183.24 51.4309V45.8121C183.24 37.3207 176.355 30.4353 167.863 30.4353H163.577C155.085 30.4353 148.2 37.3207 148.2 45.8121ZM167.899 58.9242H163.552C159.27 58.9242 155.795 55.4537 155.795 51.1674V46.0654C155.795 41.7843 159.265 38.3086 163.552 38.3086H167.899C172.18 38.3086 175.655 41.7792 175.655 46.0654V51.1674C175.655 55.4486 172.185 58.9242 167.899 58.9242Z" fill="#0B3551"/>
<path d="M221.948 30.4304H217.662C209.17 30.4304 202.285 37.3157 202.285 45.8072V51.4259C202.285 59.9174 209.17 66.8027 217.662 66.8027H225.631V58.9193H217.631C213.35 58.9193 209.875 55.4487 209.875 51.1625V46.0605C209.875 41.7793 213.345 38.3037 217.631 38.3037H221.979C226.26 38.3037 229.735 41.7742 229.735 46.0605V66.7977H237.33V45.8021C237.33 37.3107 230.445 30.4253 221.953 30.4253L221.948 30.4304Z" fill="#0B3551"/>
<path d="M130.624 30.4302H126.181C122.69 30.4302 119.519 31.8133 117.188 34.0578C114.857 31.8133 111.691 30.4302 108.195 30.4302H103.752C96.5876 30.4302 90.7865 36.2364 90.7865 43.3953V66.8026H98.7004V44.2161C98.7004 40.9584 101.34 38.3187 104.598 38.3187H107.349C110.399 38.3187 112.907 40.6341 113.211 43.598V66.7975H121.16V43.598C121.469 40.629 123.977 38.3187 127.022 38.3187H129.773C133.031 38.3187 135.671 40.9584 135.671 44.2161V66.8026H143.584V43.3953C143.584 36.2313 137.778 30.4302 130.619 30.4302H130.624Z" fill="#0B3551"/>
</svg>
